<svg width="172" height="56" viewBox="0 0 172 56" fill="none" xmlns="http://www.w3.org/2000/svg">
<g clip-path="url(#clip0_11999_6133)">
<g clip-path="url(#clip1_11999_6133)">
<g clip-path="url(#clip2_11999_6133)">
<path d="M0.79491 17.1045C1.41269 6.8494 10.6617 -0.057475 20.7117 1.81622C22.1718 2.08868 23.5608 2.56162 24.8787 3.23507C24.9012 3.24658 24.9201 3.26396 24.9333 3.28529C24.9465 3.30662 24.9534 3.33106 24.9534 3.35591V15.0502C24.9534 15.3018 24.8732 15.3308 24.713 15.1371C23.0032 13.076 20.8457 11.8894 18.2406 11.5771C15.2061 11.2132 12.2421 12.6429 11.0405 15.5254C8.74997 21.0121 12.9644 26.6956 19.0023 25.4438C21.1449 24.9998 24.3301 23.2171 24.8529 20.7935C24.8619 20.75 24.8818 20.7442 24.9126 20.7758L24.9371 20.8003C24.9422 20.8055 24.9463 20.8116 24.9491 20.8183C24.9519 20.8251 24.9534 20.8323 24.9534 20.8397V33.3242C24.9534 33.3602 24.9677 33.3947 24.9931 33.4202C25.0186 33.4456 25.0531 33.4599 25.0891 33.4599H34.2621C34.2974 33.4599 34.3313 33.4737 34.3567 33.4983C34.382 33.5228 34.3968 33.5563 34.3979 33.5916C34.435 34.8616 34.3902 36.1288 34.2634 37.3933C33.7756 42.2731 31.7444 46.3115 28.1699 49.5085C23.7395 53.4691 18.022 55.1975 12.1552 54.2023C10.3738 53.9 8.57301 53.4107 6.75272 52.7346C6.72655 52.725 6.704 52.7074 6.68819 52.6843C6.67238 52.6612 6.66409 52.6337 6.66446 52.6056C6.72964 47.8734 6.79435 43.1439 6.85862 38.4171C6.85998 38.3139 6.98761 38.3519 7.02155 38.4266C8.13762 40.9235 9.76556 42.5949 12.4186 43.3973C14.4647 44.0164 17.0689 44.049 19.0173 42.9995C22.5651 41.0891 23.6689 37.9908 23.7708 34.1334C23.7711 34.1119 23.7665 34.0906 23.7572 34.0713C23.7479 34.0519 23.7343 34.035 23.7174 34.0219C23.7005 34.0089 23.6808 34 23.6598 33.996C23.6389 33.992 23.6174 33.993 23.597 33.999C20.6153 34.8747 17.7885 35.282 14.5666 34.8123C6.32638 33.6093 0.310193 25.1777 0.79491 17.1045Z" fill="#F5C142"/>
<path d="M98.7269 23.7521C99.4094 23.1465 100.19 22.7641 101.068 22.6048C103.421 22.1757 105.755 23.2728 106.458 25.6814C106.596 26.1557 106.671 26.845 106.681 27.7493C106.703 29.8683 106.693 31.9868 106.649 34.1049C106.649 34.1402 106.634 34.1739 106.609 34.1987C106.583 34.2235 106.549 34.2376 106.514 34.238L104.417 34.242C104.381 34.242 104.347 34.2277 104.321 34.2023C104.296 34.1768 104.281 34.1423 104.281 34.1063C104.282 32.0687 104.284 30.0656 104.285 28.0969C104.287 26.5232 103.715 24.7907 101.866 24.6468C100.248 24.5201 99.2138 25.0953 98.7622 26.3725C98.6155 26.7862 98.5381 27.4682 98.53 28.4186C98.5128 30.3195 98.5146 32.2131 98.5354 34.0995C98.5356 34.1175 98.5322 34.1353 98.5255 34.1521C98.5188 34.1688 98.5088 34.184 98.4962 34.1968C98.4836 34.2097 98.4686 34.22 98.452 34.227C98.4354 34.2341 98.4176 34.2378 98.3996 34.238L96.2693 34.242C96.2342 34.2421 96.2005 34.2285 96.1752 34.2042C96.1499 34.1799 96.135 34.1468 96.1336 34.1117C96.0937 33.1377 96.0774 31.8913 96.0847 30.3724C96.1037 26.5499 96.1073 22.7251 96.0955 18.8981C96.0954 18.8803 96.0987 18.8627 96.1055 18.8463C96.1122 18.8298 96.1222 18.8148 96.1348 18.8022C96.1474 18.7896 96.1625 18.7795 96.179 18.7727C96.1956 18.7659 96.2134 18.7623 96.2313 18.7623H98.401C98.437 18.7623 98.4715 18.7768 98.497 18.8025C98.5225 18.8282 98.5368 18.8631 98.5368 18.8995L98.5015 23.6489C98.4997 23.8525 98.5748 23.8869 98.7269 23.7521Z" fill="#373736"/>
<path d="M137.62 27.6352L141.708 22.7147C141.712 22.71 141.717 22.7062 141.722 22.7036C141.728 22.701 141.734 22.6997 141.74 22.6998L144.998 22.7012C145.006 22.7011 145.014 22.7035 145.021 22.7079C145.028 22.7124 145.033 22.7187 145.036 22.7262C145.04 22.7337 145.041 22.742 145.039 22.7501C145.038 22.7582 145.034 22.7657 145.029 22.7718L139.792 28.4635C139.785 28.4712 139.781 28.4814 139.781 28.492C139.781 28.5025 139.785 28.5127 139.792 28.5205L145.018 34.1701C145.024 34.1761 145.027 34.1836 145.029 34.1917C145.03 34.1998 145.029 34.2081 145.026 34.2156C145.022 34.2231 145.017 34.2295 145.01 34.2339C145.003 34.2384 144.995 34.2407 144.987 34.2407H141.804C141.798 34.2405 141.792 34.2391 141.787 34.2366C141.782 34.234 141.777 34.2303 141.773 34.2257L137.664 29.4519C137.659 29.4451 137.651 29.4403 137.643 29.4379C137.635 29.4356 137.626 29.436 137.618 29.439C137.609 29.442 137.602 29.4474 137.597 29.4546C137.592 29.4618 137.59 29.4703 137.59 29.479L137.545 34.1986C137.545 34.2098 137.541 34.2205 137.533 34.2284C137.525 34.2362 137.514 34.2407 137.503 34.2407H135.211C135.2 34.2407 135.189 34.2362 135.181 34.2284C135.173 34.2205 135.169 34.2098 135.169 34.1986V18.8044C135.169 18.7933 135.173 18.7825 135.181 18.7747C135.189 18.7668 135.2 18.7623 135.211 18.7623H137.503C137.514 18.7623 137.525 18.7668 137.533 18.7747C137.541 18.7825 137.545 18.7933 137.545 18.8044V27.6081C137.545 27.6168 137.548 27.6253 137.552 27.6325C137.557 27.6397 137.565 27.6452 137.573 27.6481C137.581 27.6511 137.59 27.6515 137.598 27.6492C137.607 27.6469 137.614 27.642 137.62 27.6352Z" fill="#373736"/>
<path d="M168.304 32.8748C168.307 32.6766 168.244 32.6517 168.113 32.8001C167.378 33.6338 166.454 34.1429 165.344 34.3276C157.731 35.5984 156.389 23.4126 163.667 22.5735C164.541 22.4731 165.351 22.5532 166.097 22.8139C166.856 23.08 167.531 23.5104 168.124 24.1051C168.249 24.23 168.311 24.2042 168.31 24.0277L168.267 18.8995C168.267 18.8815 168.27 18.8637 168.277 18.8471C168.284 18.8305 168.294 18.8153 168.306 18.8026C168.319 18.7898 168.334 18.7797 168.35 18.7728C168.367 18.7659 168.385 18.7623 168.403 18.7623H170.606C170.642 18.7623 170.677 18.7766 170.702 18.8021C170.728 18.8276 170.742 18.8621 170.742 18.8981V34.1035C170.742 34.1396 170.728 34.1741 170.702 34.1996C170.677 34.225 170.642 34.2393 170.606 34.2393L168.412 34.242C168.394 34.242 168.376 34.2384 168.36 34.2314C168.343 34.2243 168.328 34.2139 168.315 34.2009C168.303 34.1879 168.293 34.1725 168.286 34.1555C168.279 34.1386 168.276 34.1204 168.276 34.1022L168.304 32.8748ZM164.922 32.34C165.381 32.3288 165.832 32.2177 166.251 32.0129C166.669 31.8082 167.047 31.5138 167.362 31.1467C167.677 30.7795 167.924 30.3468 168.088 29.8732C168.252 29.3996 168.33 28.8943 168.317 28.3863C168.292 27.3603 167.901 26.3854 167.228 25.6759C166.556 24.9664 165.659 24.5805 164.733 24.6032C164.275 24.6144 163.824 24.7255 163.405 24.9303C162.986 25.135 162.608 25.4294 162.293 25.7965C161.978 26.1637 161.731 26.5964 161.567 27.07C161.404 27.5436 161.326 28.0489 161.338 28.5569C161.363 29.5829 161.755 30.5578 162.427 31.2673C163.099 31.9768 163.997 32.3626 164.922 32.34Z" fill="#373736"/>
<path d="M78.9467 31.9841C79.4097 32.3249 80.6995 32.2271 81.2793 32.2448C81.2971 32.2453 81.3147 32.2493 81.331 32.2566C81.3472 32.264 81.3619 32.2744 81.3741 32.2874C81.3864 32.3004 81.3959 32.3157 81.4022 32.3323C81.4086 32.349 81.4115 32.3668 81.411 32.3846L81.3689 34.09C81.3681 34.1223 81.3556 34.1532 81.3337 34.1771C81.3117 34.2011 81.2818 34.2164 81.2494 34.2203C80.0256 34.3706 78.9906 34.333 78.1443 34.1076C76.7132 33.7261 76.2312 32.61 76.2067 31.2102C76.1678 29.0423 76.1438 26.9079 76.1348 24.807C76.1344 24.7712 76.1201 24.7371 76.0949 24.7119C76.0698 24.6867 76.0358 24.6726 76.0004 24.6726L74.9508 24.6631C74.915 24.6627 74.8809 24.6483 74.8557 24.6228C74.8305 24.5974 74.8164 24.5631 74.8164 24.5273V22.8356C74.8164 22.7996 74.8307 22.765 74.8562 22.7396C74.8816 22.7141 74.9162 22.6998 74.9522 22.6998H76.0384C76.0744 22.6998 76.1089 22.6855 76.1344 22.66C76.1598 22.6346 76.1742 22.6 76.1742 22.564V19.9856C76.1742 19.9496 76.1885 19.9151 76.2139 19.8896C76.2394 19.8642 76.2739 19.8499 76.3099 19.8499L78.4484 19.8485C78.4844 19.8485 78.5189 19.8628 78.5444 19.8883C78.5699 19.9137 78.5842 19.9483 78.5842 19.9843V22.564C78.5842 22.6 78.5985 22.6346 78.6239 22.66C78.6494 22.6855 78.6839 22.6998 78.7199 22.6998H81.2766C81.2948 22.6998 81.3128 22.7034 81.3295 22.7105C81.3462 22.7176 81.3614 22.7279 81.3741 22.741C81.3867 22.754 81.3966 22.7695 81.4032 22.7864C81.4098 22.8034 81.4129 22.8215 81.4124 22.8396L81.3689 24.5368C81.3678 24.5721 81.3531 24.6056 81.3277 24.6302C81.3024 24.6548 81.2684 24.6685 81.2331 24.6685H78.7389C78.7029 24.6685 78.6684 24.6828 78.6429 24.7083C78.6175 24.7338 78.6032 24.7683 78.6032 24.8043V31.3812C78.6032 31.6148 78.7177 31.8157 78.9467 31.9841Z" fill="#373736"/>
<path d="M64.6525 29.4763C64.5746 29.6682 64.5927 29.8981 64.7068 30.166C65.1562 31.2224 65.74 31.9854 66.8941 32.2801C68.4781 32.6838 69.6874 32.2158 70.522 30.8762C70.5341 30.8566 70.551 30.8405 70.5712 30.8293C70.5915 30.8181 70.6142 30.8123 70.6374 30.8123H72.9537C72.9758 30.8124 72.9974 30.8178 73.0169 30.8281C73.0363 30.8384 73.053 30.8533 73.0654 30.8715C73.0778 30.8896 73.0857 30.9106 73.0882 30.9324C73.0907 30.9543 73.0879 30.9765 73.08 30.997C72.0318 33.7383 69.0882 35.0132 66.3048 34.261C64.2601 33.7089 62.9322 32.4244 62.3212 30.4077C61.5215 27.7628 62.4217 24.6088 64.8765 23.2334C67.6504 21.6788 71.4942 22.5884 72.9035 25.5619C73.4222 26.6563 73.5824 27.8909 73.3841 29.2659C73.3793 29.2983 73.363 29.328 73.3384 29.3494C73.3137 29.3708 73.2822 29.3826 73.2497 29.3826L64.7787 29.3908C64.7518 29.3911 64.7254 29.3994 64.703 29.4146C64.6806 29.4298 64.663 29.4512 64.6525 29.4763ZM70.9429 27.2958C70.4052 23.6068 65.1711 23.7045 64.6267 27.2958C64.6237 27.3151 64.625 27.3349 64.6303 27.3537C64.6356 27.3725 64.6449 27.39 64.6576 27.4048C64.6702 27.4196 64.6859 27.4315 64.7035 27.4397C64.7212 27.4478 64.7403 27.452 64.7597 27.4519H70.8085C70.8279 27.4519 70.8471 27.4477 70.8648 27.4396C70.8825 27.4315 70.8982 27.4196 70.911 27.4048C70.9237 27.39 70.9332 27.3726 70.9387 27.3538C70.9442 27.335 70.9456 27.3152 70.9429 27.2958Z" fill="#373736"/>
<path d="M87.1246 34.314C79.9734 32.7363 81.9842 20.6414 90.1293 22.7324C91.9487 23.1994 93.2087 24.3739 93.7111 26.1933C93.7167 26.2134 93.7176 26.2346 93.7138 26.2552C93.7099 26.2757 93.7013 26.2951 93.6887 26.3118C93.676 26.3285 93.6597 26.342 93.641 26.3514C93.6223 26.3607 93.6017 26.3656 93.5807 26.3657H91.2929C91.2699 26.3657 91.2473 26.3599 91.2272 26.349C91.207 26.3381 91.1899 26.3224 91.1775 26.3032C90.3914 25.0609 89.6949 24.4363 88.1158 24.5775C83.8687 24.955 84.3005 33.502 89.3921 32.2787C90.3248 32.0547 90.6779 31.4478 91.1734 30.6711C91.186 30.652 91.203 30.6363 91.2229 30.6254C91.2428 30.6145 91.265 30.6087 91.2875 30.6087H93.5875C93.6089 30.6085 93.6301 30.6136 93.6491 30.6234C93.6682 30.6332 93.6847 30.6474 93.6972 30.6649C93.7097 30.6825 93.7178 30.7028 93.7209 30.7242C93.7241 30.7456 93.7221 30.7674 93.7151 30.7879C92.781 33.5917 89.9908 34.9467 87.1246 34.314Z" fill="#373736"/>
<path d="M111.42 29.5483C111.686 31.1396 112.546 32.0683 114.001 32.3344C115.398 32.591 116.613 32.1022 117.335 30.8789C117.348 30.8586 117.365 30.8418 117.385 30.8302C117.406 30.8185 117.429 30.8124 117.452 30.8124H119.8C119.822 30.8123 119.845 30.8179 119.865 30.8285C119.884 30.8392 119.901 30.8547 119.914 30.8736C119.926 30.8925 119.934 30.9141 119.936 30.9366C119.937 30.9591 119.934 30.9818 119.925 31.0025C118.796 33.6053 116.526 34.7227 113.809 34.3928C111.117 34.0642 109.348 32.0764 108.957 29.4451C108.465 26.1309 110.186 23.2891 113.488 22.6075C117.667 21.7453 120.883 25.1533 120.206 29.2713C120.2 29.3033 120.184 29.3322 120.16 29.3531C120.135 29.374 120.104 29.3854 120.073 29.3854L111.554 29.3895C111.535 29.3894 111.515 29.3936 111.497 29.4019C111.479 29.4102 111.463 29.4223 111.451 29.4374C111.438 29.4525 111.428 29.4703 111.423 29.4894C111.418 29.5086 111.417 29.5287 111.42 29.5483ZM115.832 24.7962C113.929 24.0087 111.8 25.1831 111.447 27.2944C111.444 27.3138 111.444 27.3337 111.45 27.3527C111.455 27.3716 111.464 27.3893 111.477 27.4043C111.489 27.4193 111.505 27.4313 111.523 27.4396C111.541 27.4478 111.56 27.452 111.58 27.4519H117.619C117.638 27.452 117.656 27.4482 117.674 27.4407C117.691 27.4332 117.706 27.4223 117.719 27.4085C117.732 27.3948 117.741 27.3785 117.748 27.3607C117.754 27.343 117.756 27.3241 117.755 27.3053C117.668 26.101 116.943 25.2551 115.832 24.7962Z" fill="#373736"/>
<path d="M121.799 28.2679C121.858 24.0453 125.619 21.543 129.581 22.8532C131.23 23.3991 132.29 24.5124 132.758 26.1933C132.764 26.2135 132.765 26.2346 132.761 26.2552C132.757 26.2758 132.749 26.2951 132.736 26.3118C132.723 26.3285 132.707 26.3421 132.688 26.3514C132.67 26.3608 132.649 26.3657 132.628 26.3657H130.317C130.291 26.3658 130.266 26.3584 130.244 26.3445C130.222 26.3305 130.204 26.3106 130.194 26.287C129.699 25.199 128.877 24.6269 127.725 24.5708C124.465 24.4106 123.82 27.9937 124.611 30.3792C125.437 32.8707 129.196 33.2522 130.171 30.6956C130.18 30.6701 130.197 30.6482 130.22 30.6327C130.242 30.6171 130.269 30.6088 130.297 30.6087H132.612C132.633 30.6087 132.654 30.6138 132.673 30.6236C132.692 30.6333 132.709 30.6474 132.722 30.6648C132.734 30.6821 132.742 30.7022 132.746 30.7234C132.749 30.7445 132.747 30.7662 132.741 30.7866C131.919 33.3147 129.771 34.5679 127.126 34.4172C123.66 34.2203 121.754 31.5564 121.799 28.2679Z" fill="#373736"/>
<path d="M147.418 24.3237C149.313 22.1771 152.986 21.9205 155.234 23.6258C156.953 24.9292 157.606 27.1641 157.276 29.2727C157.272 29.3045 157.255 29.3335 157.231 29.3544C157.207 29.3753 157.175 29.3868 157.143 29.3867H148.609C148.589 29.3868 148.569 29.3912 148.551 29.3997C148.533 29.4082 148.517 29.4205 148.505 29.4358C148.492 29.451 148.483 29.4689 148.478 29.4881C148.473 29.5073 148.472 29.5274 148.475 29.547C149.029 32.5557 152.717 33.5605 154.422 30.8748C154.435 30.8557 154.452 30.84 154.472 30.8291C154.492 30.8182 154.515 30.8124 154.538 30.8124H156.849C156.871 30.8123 156.892 30.8176 156.912 30.8277C156.931 30.8378 156.948 30.8525 156.961 30.8706C156.973 30.8886 156.981 30.9094 156.984 30.9312C156.987 30.953 156.984 30.9751 156.976 30.9957C156.392 32.5598 155.299 33.6053 153.699 34.1321C150.604 35.1531 147.278 33.6908 146.264 30.5435C145.605 28.5001 145.949 25.9869 147.418 24.3237ZM154.83 27.2985C154.338 23.5729 149.001 23.7562 148.534 27.2985C148.531 27.3177 148.533 27.3371 148.539 27.3556C148.544 27.3741 148.554 27.3911 148.566 27.4056C148.579 27.4202 148.595 27.4318 148.612 27.4398C148.63 27.4478 148.649 27.4519 148.668 27.4519H154.695C154.715 27.4519 154.734 27.4478 154.751 27.4398C154.769 27.4318 154.785 27.4202 154.797 27.4056C154.81 27.3911 154.819 27.3741 154.825 27.3556C154.831 27.3371 154.832 27.3177 154.83 27.2985Z" fill="#373736"/>
<path d="M57.0885 32.8164C56.6097 33.3396 56.0571 33.7396 55.4307 34.0166C53.356 34.9345 50.8211 34.3384 49.3724 32.6467C47.0371 29.9189 47.42 24.993 50.756 23.1736C52.4165 22.2694 54.8265 22.2422 56.4422 23.4832C56.6966 23.6787 56.9314 23.8969 57.1469 24.1376C57.2727 24.2788 57.3356 24.2544 57.3356 24.0643V22.8274C57.3356 22.8093 57.3392 22.7915 57.3461 22.7748C57.353 22.7582 57.3632 22.7431 57.3759 22.7304C57.3887 22.7178 57.4039 22.7078 57.4205 22.7012C57.4371 22.6945 57.4549 22.6913 57.4727 22.6916L59.5976 22.7283C59.6332 22.7286 59.6671 22.7429 59.6923 22.768C59.7174 22.7932 59.7317 22.8272 59.732 22.8627C59.7664 26.5096 59.78 30.1547 59.7728 33.798C59.7714 34.5719 59.751 35.3717 59.5501 36.094C58.616 39.4748 55.1727 40.5162 52.0322 39.6893C50.1006 39.1806 48.9008 37.9518 48.4328 36.003C48.4279 35.983 48.4276 35.9622 48.4319 35.942C48.4362 35.9219 48.445 35.903 48.4577 35.8868C48.4704 35.8705 48.4866 35.8574 48.5051 35.8484C48.5236 35.8394 48.5439 35.8347 48.5645 35.8346L50.7329 35.836C50.7575 35.8361 50.7816 35.8429 50.8027 35.8559C50.8238 35.8688 50.8409 35.8873 50.8524 35.9093C50.9908 36.1687 51.1144 36.4769 51.314 36.6819C53.1293 38.5474 56.7301 38.2596 57.2053 35.2915C57.332 34.5013 57.3718 33.7043 57.3247 32.9006C57.3121 32.6869 57.2333 32.6589 57.0885 32.8164ZM53.9313 32.3402C54.3894 32.3298 54.8408 32.2194 55.2596 32.0154C55.6784 31.8114 56.0565 31.5177 56.3723 31.1511C56.6881 30.7845 56.9354 30.3522 57.1 29.8789C57.2647 29.4055 57.3435 28.9004 57.332 28.3924C57.3205 27.8844 57.2188 27.3834 57.0329 26.918C56.8469 26.4526 56.5802 26.032 56.2482 25.6801C55.9161 25.3282 55.525 25.052 55.0974 24.8672C54.6697 24.6823 54.2138 24.5926 53.7557 24.603C53.2976 24.6134 52.8462 24.7237 52.4274 24.9277C52.0085 25.1318 51.6304 25.4255 51.3146 25.792C50.9988 26.1586 50.7516 26.5909 50.5869 27.0643C50.4222 27.5376 50.3434 28.0427 50.355 28.5507C50.3665 29.0588 50.4681 29.5598 50.6541 30.0252C50.8401 30.4905 51.1067 30.9112 51.4388 31.2631C51.7709 31.6149 52.1619 31.8912 52.5896 32.076C53.0172 32.2608 53.4731 32.3506 53.9313 32.3402Z" fill="#373736"/>
<path d="M34.2469 26.0711C34.2776 26.0748 34.306 26.0892 34.3273 26.1117C34.3486 26.1342 34.3614 26.1636 34.3637 26.1946C34.4216 26.9704 34.4307 27.7226 34.3909 28.4512C34.3691 28.8436 34.194 28.9957 33.8111 28.9821C33.1666 28.9595 32.4393 28.9744 31.6292 29.0269C31.5953 29.0286 31.5634 29.0434 31.5399 29.0681C31.5164 29.0928 31.5032 29.1257 31.5029 29.16L31.4622 31.8646C31.4586 32.0683 31.359 32.1701 31.1635 32.1701L29.1717 32.166C28.9481 32.166 28.8345 32.0434 28.8309 31.7981L28.7969 29.1152C28.7962 29.0793 28.7816 29.0451 28.7562 29.0199C28.7308 28.9948 28.6967 28.9807 28.6611 28.9807L26.0733 28.978C26.0373 28.978 26.0027 28.9637 25.9773 28.9383C25.9518 28.9128 25.9375 28.8783 25.9375 28.8422V26.1743C25.9375 26.1387 25.9516 26.1046 25.9767 26.0792C26.0018 26.0538 26.036 26.0392 26.0719 26.0385L28.6869 25.9991C28.7225 25.9984 28.7563 25.9838 28.7812 25.9584C28.8061 25.933 28.82 25.8989 28.82 25.8633L28.8241 23.0053C28.8241 22.9693 28.8384 22.9347 28.8638 22.9093C28.8893 22.8838 28.9238 22.8695 28.9599 22.8695H31.1648C31.3676 22.8695 31.469 22.9713 31.469 23.175L31.4703 25.8986C31.4703 25.9166 31.4739 25.9344 31.4809 25.9509C31.4879 25.9675 31.4981 25.9825 31.511 25.9951C31.5238 26.0078 31.5391 26.0177 31.5559 26.0245C31.5727 26.0312 31.5907 26.0346 31.6088 26.0344C32.528 26.0208 33.382 25.957 34.2469 26.0711Z" fill="#DADBDA"/>
</g>
</g>
</g>
<defs>
<clipPath id="clip0_11999_6133">
<rect width="170.84" height="54.31" fill="white" transform="translate(0.360352 0.840027)"/>
</clipPath>
<clipPath id="clip1_11999_6133">
<rect width="170.84" height="54.31" fill="white" transform="translate(0.360352 0.840027)"/>
</clipPath>
<clipPath id="clip2_11999_6133">
<rect width="170.805" height="54.31" fill="white" transform="translate(0.37793 0.840027)"/>
</clipPath>
</defs>
</svg>
