<svg width="100" height="100" fill="none" xmlns="http://www.w3.org/2000/svg"><g opacity=".2" clip-path="url(#clip0_12267_12865)"><path d="M89.235 20.084v-2.415l-1.707 1.707-15.396 15.396-.612.612.518.694c5.068 6.786 7.778 14.967 7.778 23.514 0 10.522-4.103 20.426-11.543 27.865C60.833 94.897 50.93 99 40.408 99c-10.521 0-20.425-4.103-27.865-11.543C5.103 80.017 1 70.114 1 59.592c0-10.521 4.103-20.425 11.543-27.865l-.69-.69.69.69c7.44-7.44 17.344-11.543 27.865-11.543 8.547 0 16.727 2.71 23.515 7.778l.693.518.612-.612 15.395-15.396 1.707-1.707H73.81a4.884 4.884 0 010-9.765h20.309A4.884 4.884 0 0199 5.882v20.31a4.884 4.884 0 01-9.765 0v-6.108zm-69.79 18.548l.682.68-.681-.68c-5.602 5.6-8.681 13.04-8.681 20.96 0 7.922 3.08 15.36 8.68 20.962 5.602 5.602 13.041 8.682 20.963 8.682 7.92 0 15.36-3.082 20.96-8.682 5.602-5.601 8.683-13.04 8.683-20.961 0-7.922-3.081-15.36-8.683-20.961-5.6-5.6-13.039-8.683-20.96-8.683-7.922 0-15.36 3.081-20.962 8.683z" fill="#FFE629" stroke="#FEFCE9" stroke-width="2"/></g><defs><clipPath id="clip0_12267_12865"><path fill="#fff" d="M0 0h100v100H0z"/></clipPath></defs></svg>