<svg width="100" height="100" fill="none" xmlns="http://www.w3.org/2000/svg"><g opacity=".2" stroke="#FFE629" stroke-linecap="round" stroke-linejoin="round"><path d="M70.832 83.333H29.165" stroke-width="8"/><path d="M58.334 83.334c-22.917-10.417-3.333-26.667-12.5-41.667M60.42 39.167c-4.584 3.333-7.5 9.167-9.584 15.417 8.333 1.666 14.583 1.666 20-1.25 5-2.5 9.583-7.917 12.5-17.5-11.667-2.084-18.333 0-22.917 3.333zM41.253 25a29.167 29.167 0 014.583 16.667c-7.916-.417-13.75-2.5-17.916-5.833-4.167-4.167-6.667-9.584-7.084-19.167 11.25.417 16.667 4.167 20.417 8.333z" stroke-width="7"/></g></svg>