<svg width="100" height="100" fill="none" xmlns="http://www.w3.org/2000/svg"><g opacity=".2" clip-path="url(#clip0_11999_5921)"><path d="M90.235 20.084v-4.829l-3.414 3.414-15.396 15.396-1.224 1.224 1.036 1.387c4.938 6.613 7.579 14.584 7.579 22.916 0 10.257-3.997 19.906-11.25 27.158C60.313 94.002 50.664 98 40.408 98S20.502 94.002 13.25 86.75C5.998 79.498 2 69.849 2 59.592c0-10.256 3.997-19.906 11.25-27.158l-1.397-1.396 1.397 1.396c7.252-7.252 16.902-11.25 27.158-11.25 8.333 0 16.303 2.642 22.917 7.58l1.386 1.035 1.224-1.224L81.33 13.179l3.415-3.414H73.809a3.884 3.884 0 01-3.883-3.883A3.884 3.884 0 0173.81 2h20.309A3.884 3.884 0 0198 5.882v20.31a3.884 3.884 0 01-3.882 3.882 3.884 3.884 0 01-3.883-3.883v-6.107zM18.74 37.924h0c-5.79 5.789-8.974 13.483-8.974 21.669s3.184 15.88 8.973 21.668c5.79 5.79 13.483 8.975 21.67 8.975 8.186 0 15.88-3.187 21.667-8.975 5.79-5.789 8.976-13.481 8.976-21.668s-3.186-15.88-8.976-21.668c-5.788-5.788-13.48-8.976-21.667-8.976-8.187 0-15.88 3.186-21.67 8.976z" fill="#FFE629" stroke="#FEFCE9" stroke-width="4"/></g><defs><clipPath id="clip0_11999_5921"><path fill="#fff" d="M0 0h100v100H0z"/></clipPath></defs></svg>