<svg width="34" height="52" viewBox="0 0 34 52" fill="none" xmlns="http://www.w3.org/2000/svg">
<path d="M0.0276218 15.3099C0.651955 5.24234 9.99912 -1.53822 20.1559 0.301209C21.6314 0.568682 23.0351 1.03298 24.367 1.69411C24.3898 1.70541 24.4089 1.72247 24.4222 1.74341C24.4355 1.76435 24.4426 1.78834 24.4425 1.81274V13.2932C24.4425 13.5402 24.3615 13.5686 24.1996 13.3785C22.4716 11.3551 20.2912 10.1901 17.6585 9.88356C14.5917 9.52634 11.5963 10.9299 10.382 13.7597C8.06712 19.146 12.3263 24.7256 18.4283 23.4967C20.5936 23.0608 23.8127 21.3107 24.341 18.9314C24.3501 18.8888 24.3702 18.883 24.4013 18.9141L24.426 18.9381C24.4313 18.9432 24.4354 18.9492 24.4382 18.9558C24.441 18.9625 24.4425 18.9696 24.4425 18.9767V31.2329C24.4425 31.2683 24.457 31.3022 24.4827 31.3272C24.5084 31.3522 24.5433 31.3662 24.5797 31.3662H33.85C33.8857 31.3662 33.92 31.3797 33.9456 31.4038C33.9713 31.428 33.9862 31.4609 33.9873 31.4955C34.0248 32.7422 33.9795 33.9863 33.8514 35.2277C33.3583 40.0182 31.3056 43.9827 27.6931 47.1213C23.2158 51.0094 17.4376 52.7063 11.5085 51.7292C9.70822 51.4324 7.88828 50.9521 6.04867 50.2883C6.02222 50.2789 5.99943 50.2617 5.98345 50.239C5.96748 50.2163 5.9591 50.1893 5.95948 50.1617C6.02534 45.516 6.09075 40.873 6.1557 36.2327C6.15707 36.1314 6.28605 36.1687 6.32036 36.242C7.44827 38.6933 9.09349 40.3341 11.7747 41.1219C13.8425 41.7297 16.4744 41.7617 18.4434 40.7313C22.0289 38.8559 23.1444 35.8142 23.2473 32.0273C23.2477 32.0063 23.243 31.9854 23.2336 31.9664C23.2243 31.9474 23.2105 31.9308 23.1934 31.9179C23.1763 31.9051 23.1564 31.8964 23.1353 31.8924C23.1141 31.8885 23.0923 31.8895 23.0717 31.8954C20.0584 32.7551 17.2016 33.155 13.9455 32.6938C5.61781 31.5128 -0.46224 23.2354 0.0276218 15.3099Z" fill="#F5C142"/>
</svg>
