<svg width="90" height="48" fill="none" xmlns="http://www.w3.org/2000/svg"><g clip-path="url(#clip0_12295_10108)"><path d="M90 .18H0v47.643h90V.18z" fill="#fff"/><path d="M90 0H.004v3.77H90V0zM90 7.372H.004v3.77H90v-3.77zM90 14.744H.004v3.769H90v-3.769zM90 22.116H.004v3.769H90v-3.77zM90 29.488H.004v3.769H90v-3.77zM90 36.86H.004v3.768H90V36.86zM90 44.231H.004V48H90V44.23z" fill="#B22234"/><path d="M35.944 0H0v25.886h35.944V0z" fill="#3C3B6E"/><path d="M3.057.991l.336 1.057h1.089L3.6 2.7l.336 1.057-.88-.653-.88.653.336-1.057-.881-.653H2.72L3.057.99zM6.02 3.647l.336 1.057h1.088l-.88.653.336 1.057-.88-.653-.881.653.336-1.057-.88-.653h1.088l.337-1.057zM6.02 8.837l.336 1.057h1.088l-.88.653.336 1.056-.88-.653-.881.653.336-1.056-.88-.653h1.088l.337-1.057zM6.02 14.026l.336 1.057h1.088l-.88.653.336 1.057-.88-.653-.881.653.336-1.057-.88-.653h1.088l.337-1.057zM6.02 19.216l.336 1.057h1.088l-.88.653.336 1.056-.88-.653-.881.653.336-1.056-.88-.653h1.088l.337-1.057zM12.025 3.647l.336 1.057h1.088l-.88.653.336 1.057-.88-.653-.881.653.336-1.057-.88-.653h1.088l.337-1.057zM12.025 8.837l.336 1.057h1.088l-.88.653.336 1.056-.88-.653-.881.653.336-1.056-.88-.653h1.088l.337-1.057zM12.025 14.026l.336 1.057h1.088l-.88.653.336 1.057-.88-.653-.881.653.336-1.057-.88-.653h1.088l.337-1.057zM12.025 19.216l.336 1.057h1.088l-.88.653.336 1.056-.88-.653-.881.653.336-1.056-.88-.653h1.088l.337-1.057zM18.03 3.647l.336 1.057h1.088l-.88.653.336 1.057-.88-.653-.881.653.336-1.057-.88-.653h1.088l.336-1.057zM18.03 8.837l.336 1.057h1.088l-.88.653.336 1.056-.88-.653-.881.653.336-1.056-.88-.653h1.088l.336-1.057zM18.03 14.026l.336 1.057h1.088l-.88.653.336 1.057-.88-.653-.881.653.336-1.057-.88-.653h1.088l.336-1.057zM18.03 19.216l.336 1.057h1.088l-.88.653.336 1.056-.88-.653-.881.653.336-1.056-.88-.653h1.088l.336-1.057zM24.035 3.647l.337 1.057h1.088l-.88.653.336 1.057-.88-.653-.881.653.336-1.057-.88-.653h1.088l.336-1.057zM24.035 8.837l.337 1.057h1.088l-.88.653.336 1.056-.88-.653-.881.653.336-1.056-.88-.653h1.088l.336-1.057zM24.035 14.026l.337 1.057h1.088l-.88.653.336 1.057-.88-.653-.881.653.336-1.057-.88-.653h1.088l.336-1.057zM24.035 19.216l.337 1.057h1.088l-.88.653.336 1.056-.88-.653-.881.653.336-1.056-.88-.653h1.088l.336-1.057zM30.04 3.647l.337 1.057h1.088l-.88.653.336 1.057-.88-.653-.881.653.336-1.057-.88-.653h1.088l.336-1.057zM30.04 8.837l.337 1.057h1.088l-.88.653.336 1.056-.88-.653-.881.653.336-1.056-.88-.653h1.088l.336-1.057zM30.04 14.026l.337 1.057h1.088l-.88.653.336 1.057-.88-.653-.881.653.336-1.057-.88-.653h1.088l.336-1.057zM30.04 19.216l.337 1.057h1.088l-.88.653.336 1.056-.88-.653-.881.653.336-1.056-.88-.653h1.088l.336-1.057zM3.057 6.18l.336 1.057h1.089L3.6 7.89l.336 1.057-.88-.653-.88.653.336-1.057-.881-.653H2.72l.337-1.056zM3.057 11.37l.336 1.057h1.089l-.881.653.336 1.057-.88-.653-.88.653.336-1.057-.881-.653H2.72l.337-1.057zM3.057 16.56l.336 1.056h1.089l-.881.654.336 1.056-.88-.653-.88.653.336-1.056-.881-.654H2.72l.337-1.056zM3.057 21.75l.336 1.056h1.089l-.881.653.336 1.057-.88-.653-.88.653.336-1.057-.881-.653H2.72l.337-1.057zM8.982.991l.336 1.057h1.088l-.88.653.336 1.057-.88-.653-.881.653.336-1.057-.88-.653h1.088L8.982.99zM8.982 6.18l.336 1.057h1.088l-.88.653.336 1.057-.88-.653-.881.653.336-1.057-.88-.653h1.088l.337-1.056zM8.982 11.37l.336 1.057h1.088l-.88.653.336 1.057-.88-.653-.881.653.336-1.057-.88-.653h1.088l.337-1.057zM8.982 16.56l.336 1.056h1.088l-.88.654.336 1.056-.88-.653-.881.653.336-1.056-.88-.654h1.088l.337-1.056zM8.982 21.75l.336 1.056h1.088l-.88.653.336 1.057-.88-.653-.881.653.336-1.057-.88-.653h1.088l.337-1.057zM15.068.991l.336 1.057h1.088l-.88.653.336 1.057-.88-.653-.881.653.336-1.057-.88-.653h1.088L15.068.99zM15.068 6.18l.336 1.057h1.088l-.88.653.336 1.057-.88-.653-.881.653.336-1.057-.88-.653h1.088l.337-1.056zM15.068 11.37l.336 1.057h1.088l-.88.653.336 1.057-.88-.653-.881.653.336-1.057-.88-.653h1.088l.337-1.057zM15.068 16.56l.336 1.056h1.088l-.88.654.336 1.056-.88-.653-.881.653.336-1.056-.88-.654h1.088l.337-1.056zM15.068 21.75l.336 1.056h1.088l-.88.653.336 1.057-.88-.653-.881.653.336-1.057-.88-.653h1.088l.337-1.057zM21.032.991l.337 1.057h1.088l-.88.653.336 1.057-.88-.653-.881.653.336-1.057-.88-.653h1.088L21.032.99zM21.032 6.18l.337 1.057h1.088l-.88.653.336 1.057-.88-.653-.881.653.336-1.057-.88-.653h1.088l.336-1.056zM21.032 11.37l.337 1.057h1.088l-.88.653.336 1.057-.88-.653-.881.653.336-1.057-.88-.653h1.088l.336-1.057zM21.032 16.56l.337 1.056h1.088l-.88.654.336 1.056-.88-.653-.881.653.336-1.056-.88-.654h1.088l.336-1.056zM21.032 21.75l.337 1.056h1.088l-.88.653.336 1.057-.88-.653-.881.653.336-1.057-.88-.653h1.088l.336-1.057zM26.997.991l.337 1.057h1.088l-.88.653.336 1.057-.88-.653-.881.653.336-1.057-.88-.653h1.088L26.997.99zM26.997 6.18l.337 1.057h1.088l-.88.653.336 1.057-.88-.653-.881.653.336-1.057-.88-.653h1.088l.336-1.056zM26.997 11.37l.337 1.057h1.088l-.88.653.336 1.057-.88-.653-.881.653.336-1.057-.88-.653h1.088l.336-1.057zM26.997 16.56l.337 1.056h1.088l-.88.654.336 1.056-.88-.653-.881.653.336-1.056-.88-.654h1.088l.336-1.056zM26.997 21.75l.337 1.056h1.088l-.88.653.336 1.057-.88-.653-.881.653.336-1.057-.88-.653h1.088l.336-1.057zM33.082.991l.337 1.057h1.088l-.88.653.336 1.057-.88-.653-.881.653.336-1.057-.88-.653h1.088L33.082.99zM33.082 6.18l.337 1.057h1.088l-.88.653.336 1.057-.88-.653-.881.653.336-1.057-.88-.653h1.088l.336-1.056zM33.082 11.37l.337 1.057h1.088l-.88.653.336 1.057-.88-.653-.881.653.336-1.057-.88-.653h1.088l.336-1.057zM33.082 16.56l.337 1.056h1.088l-.88.654.336 1.056-.88-.653-.881.653.336-1.056-.88-.654h1.088l.336-1.056zM33.082 21.75l.337 1.056h1.088l-.88.653.336 1.057-.88-.653-.881.653.336-1.057-.88-.653h1.088l.336-1.057z" fill="#fff"/></g><defs><clipPath id="clip0_12295_10108"><path fill="#fff" d="M0 0h90v48H0z"/></clipPath></defs></svg>