<svg width="90" height="48" fill="none" xmlns="http://www.w3.org/2000/svg"><g clip-path="url(#clip0_12297_10234)"><path d="M43.441 18.137l7.668 9.833-12.87-4.135 13.274-3.042-8.678 9.07.606-11.726z" fill="#fff"/><path d="M40.119 30.65c-2.346 3.875-5.902 5.596-11.402 5.836-8.252.36-15.27-5.023-15.693-12.026-.423-6.998 5.91-12.972 14.162-13.331 6.218-.271 11.05 2.115 13.557 6.614-2.265-3.074-5.675-4.42-10.23-4.221-6.72.293-11.871 5.158-11.527 10.854.344 5.705 6.054 10.087 12.774 9.794 3.963-.172 6.296-.922 8.359-3.52z" fill="#fff"/><path d="M90 0H0v48h90V0z" fill="#fff"/><path d="M90 23.202H0V48h90V23.202z" fill="#D42D27"/><path d="M90 15.786H0v16.15h90v-16.15z" fill="#1F429B"/></g><defs><clipPath id="clip0_12297_10234"><path fill="#fff" d="M0 0h90v48H0z"/></clipPath></defs></svg>